PathFileType	4	(X/Y/Z)	G:\Shared drives\HIT\Data\HapticPilot\Subject1\Edited\static1.trc
DataRate	CameraRate	NumFrames	NumMarkers	Units	OrigDataRate	OrigDataStartFrame	OrigNumFrames
50.00	50.00	       6	38	mm	50.00	199	       227
Frame#	Time	r_knee			r_shank(antsup)			r_ankle			r_calc			r_5meta			r_toe			L_knee			L_shank(ant_sup)			L_ankle			L_calc			L_5meta			L_toe			r_mknee			r_mankle			L_mknee			L_mankle			r_sh2			r_sh3			r_sh4			L_sh2			L_sh3			r_thigh1			r_thigh2			r_thigh3			r_thigh4			r_thigh5			L_thigh1			L_thigh2			L_thigh3			L_thigh4			r.ASIS			r.PSIS			L.ASIS			L.PSIS			C7			R_Shoulder			L_Shoulder			Sternum			
		X1	Y1	Z1	X2	Y2	Z2	X3	Y3	Z3	X4	Y4	Z4	X5	Y5	Z5	X6	Y6	Z6	X7	Y7	Z7	X8	Y8	Z8	X9	Y9	Z9	X10	Y10	Z10	X11	Y11	Z11	X12	Y12	Z12	X13	Y13	Z13	X14	Y14	Z14	X15	Y15	Z15	X16	Y16	Z16	X17	Y17	Z17	X18	Y18	Z18	X19	Y19	Z19	X20	Y20	Z20	X21	Y21	Z21	X22	Y22	Z22	X23	Y23	Z23	X24	Y24	Z24	X25	Y25	Z25	X26	Y26	Z26	X27	Y27	Z27	X28	Y28	Z28	X29	Y29	Z29	X30	Y30	Z30	X31	Y31	Z31	X32	Y32	Z32	X33	Y33	Z33	X34	Y34	Z34	X35	Y35	Z35	X36	Y36	Z36	X37	Y37	Z37	X38	Y38	Z38	

199	3.960	777.70209	409.62683	575.43054	790.72559	404.64523	490.95114	735.27527	409.18176	114.39120	646.55908	452.13641	71.56744	847.14734	382.24597	39.31712	886.27332	445.09845	73.35876	771.84052	732.84094	572.81329	795.80841	733.81238	456.01672	705.92328	731.83740	113.82556	630.06946	681.18329	73.93467	821.13861	777.84082	42.46614	868.44305	721.35132	70.71164	775.11707	534.90015	554.09973	747.35156	505.49341	120.72610	789.08014	610.21729	561.78436	737.41095	642.08313	120.80413	786.18146	401.45105	370.82330	715.66907	392.65027	491.43301	704.18976	386.37256	375.69183	708.29602	752.63544	476.66867	695.10840	753.70648	354.82727	849.93732	395.18521	897.21564	847.78271	395.27515	782.21429	802.34955	382.30927	749.80164	736.92114	385.40082	892.51373	741.62408	394.45224	775.25385	864.35437	752.47729	838.61218	863.94647	743.26453	700.48718	749.23138	772.61426	838.51508	751.91644	752.78961	704.37415	874.59766	446.56525	1093.43201	686.11230	540.71759	1127.17078	884.97211	704.30365	1095.33569	694.75238	623.26324	1126.11938	739.22937	584.75031	1609.38647	781.20557	419.76843	1580.76746	805.81531	760.82355	1575.84619	878.21515	577.53882	1532.00232	
200	3.980	777.76038	409.61752	575.43439	790.81061	404.64502	490.94238	735.28253	409.18881	114.36965	646.56329	452.12720	71.56097	847.14240	382.26163	39.31466	886.27533	445.09076	73.37444	771.89050	732.84460	572.78589	795.86029	733.82306	456.02786	705.91669	731.83020	113.78847	630.27917	680.90985	73.88082	821.13525	777.79572	42.44994	868.43542	721.19257	70.78585	775.15509	534.89258	554.08563	747.34351	505.48862	120.69499	789.11224	610.23303	561.75146	737.40161	642.10583	120.82504	786.28046	401.46896	370.86270	715.76038	392.65494	491.44553	704.21411	386.36554	375.64374	708.41785	752.66467	476.66660	695.20380	753.73425	354.77408	850.01440	395.20645	897.24408	847.88477	395.28165	782.18036	802.44885	382.30865	749.78485	736.98517	385.44675	892.50189	741.72028	394.43332	775.25183	864.36835	752.53131	838.63525	863.95123	743.30145	700.51172	749.16803	772.57721	838.38635	751.99072	752.86475	704.35193	874.64709	446.56689	1093.52979	686.10413	540.76080	1127.17249	884.98663	704.33319	1095.34985	694.89709	623.33630	1126.01648	739.27753	584.65424	1609.39209	781.14960	419.71176	1580.74890	805.81342	760.75830	1575.80774	878.16382	577.51721	1531.92371	
201	4.000	777.83044	409.63000	575.41803	790.85266	404.67535	490.91153	735.27069	409.18842	114.36896	646.57593	452.17706	71.55721	847.15570	382.25055	39.32617	886.27130	445.10345	73.36064	771.90674	732.85132	572.76874	795.88739	733.81348	455.98389	705.91162	731.81555	113.78326	630.31335	680.91058	73.84681	821.15521	777.83636	42.44027	868.46094	721.37219	70.70446	775.14777	534.90637	554.09045	747.39374	505.46954	120.70075	789.14838	610.28583	561.75769	737.31097	642.08990	120.76701	786.28882	401.47092	370.83377	715.82855	392.60925	491.47491	704.25793	386.32498	375.63809	708.43024	752.70203	476.67331	695.18701	753.73010	354.79318	850.11383	395.22330	897.22852	847.87158	395.30594	782.16382	802.55408	382.28009	749.81268	737.10120	385.44595	892.50354	741.79980	394.37537	775.22363	864.35834	752.56628	838.64203	864.00128	743.30359	700.46936	749.15051	772.50891	838.40112	752.05438	752.90417	704.32513	874.70605	446.57080	1093.54675	686.13806	540.78729	1127.11169	884.97174	704.36804	1095.35950	694.88794	623.36224	1125.98535	739.28046	584.66754	1609.39197	781.11359	419.64377	1580.73315	805.80902	760.68921	1575.73816	878.07172	577.45483	1531.89502	
202	4.020	777.84735	409.65955	575.37781	790.84790	404.67767	490.90549	735.27704	409.17999	114.39120	646.61639	452.25443	71.41971	847.15198	382.26682	39.33650	886.29987	445.13107	73.29163	771.92865	732.86798	572.73383	795.84888	733.84253	455.98697	705.91675	731.82135	113.75529	630.29840	680.95331	73.81197	821.14600	777.83575	42.40175	868.43243	721.36517	70.64781	775.12830	534.92126	554.08112	747.37854	505.47739	120.69913	789.23975	610.33734	561.85461	737.48346	642.05927	120.83080	786.31091	401.49570	370.79440	715.84424	392.63556	491.42926	704.29700	386.33304	375.66162	708.41431	752.67700	476.67474	695.32306	753.83966	354.75247	850.15485	395.29285	897.27246	847.91370	395.31723	782.16241	802.55579	382.32742	749.81934	737.13513	385.45859	892.49719	741.86823	394.41321	775.23383	864.37085	752.60120	838.63336	864.01855	743.37848	700.48505	749.18964	772.63995	838.41748	752.03912	752.88470	704.31610	874.75531	446.59769	1093.49097	686.17902	540.76794	1127.00354	885.60626	704.47168	1095.63672	695.02759	623.34943	1125.84583	739.30615	584.60797	1609.35608	781.04889	419.62256	1580.71912	805.80957	760.65723	1575.74121	878.01025	577.41406	1531.85168	
203	4.040	777.86700	409.62808	575.37311	790.87177	404.70953	490.89078	735.28632	409.16287	114.35716	646.63605	452.25967	71.41116	847.15405	382.23462	39.32690	886.29352	445.11655	73.29894	771.90601	732.88635	572.73114	795.84479	733.86371	456.01025	705.89764	731.85052	113.69394	630.30139	680.97906	73.77141	821.13226	777.81219	42.38797	868.41901	721.41046	70.65035	775.14691	534.94073	554.09125	747.34747	505.46182	120.67551	789.24786	610.26019	561.76691	737.41620	642.10992	120.83794	786.34552	401.52118	370.80939	715.84406	392.64066	491.44162	704.28882	386.38916	375.66278	708.36401	752.68958	476.68018	695.16602	753.71869	354.76566	850.22083	395.35437	897.22290	848.02838	395.36148	782.16931	802.61603	382.33142	749.81415	737.21906	385.41711	892.49469	741.90851	394.37167	775.25940	864.36951	752.66357	838.64368	863.97949	743.37476	700.50989	749.20721	772.62238	838.35382	752.07184	752.92804	704.35333	874.79932	446.64975	1093.49658	686.24054	540.75201	1127.02087	885.61200	704.53882	1095.64221	694.99591	623.29083	1125.87549	739.33875	584.56421	1609.36609	781.02795	419.59521	1580.69800	805.78717	760.65216	1575.75671	878.02673	577.39252	1531.83838	
204	4.060	777.86530	409.64120	575.36005	790.89331	404.64862	490.91180	735.26990	409.17465	114.35120	646.58264	452.21252	71.43828	847.16095	382.24524	39.34689	886.29156	445.14023	73.29678	771.89606	732.86572	572.72827	795.80432	733.87482	456.03091	705.86310	731.82819	113.71085	630.33063	680.97186	73.75671	821.14392	777.82306	42.39907	868.42822	721.39893	70.65488	775.12952	534.94177	554.04120	747.38666	505.48575	120.72424	789.23840	610.28223	561.76086	737.41595	642.12396	120.83778	786.33063	401.47049	370.80280	715.91522	392.64935	491.43790	704.32404	386.36682	375.68240	708.33600	752.68237	476.68762	695.11798	753.73853	354.77130	850.23016	395.26813	897.25146	848.03326	395.39023	782.12708	802.63654	382.33426	749.78845	737.25220	385.43973	892.52728	741.95197	394.37686	775.25879	864.34711	752.65302	838.60046	863.94531	743.39575	700.51318	749.18341	772.61163	838.42828	751.90607	752.85516	704.34814	874.90527	446.65292	1093.50610	686.28455	540.71088	1127.02246	885.61438	704.53186	1095.62512	695.00964	623.16699	1125.95715	739.33459	584.58319	1609.37122	781.03125	419.60382	1580.66638	805.78619	760.63129	1575.78430	877.98212	577.39569	1531.81799	
